<svg xmlns="http://www.w3.org/2000/svg" height="40" viewBox="0 -960 960 960" width="40"><path d="M287.248-84.384q-30.01 0-51.296-21.371-21.285-21.371-21.285-51.381t21.371-51.296q21.371-21.285 51.381-21.285t51.296 21.371Q360-186.975 360-156.965t-21.371 51.296q-21.371 21.285-51.381 21.285Zm394 0q-30.01 0-51.296-21.371-21.285-21.371-21.285-51.381t21.371-51.296q21.371-21.285 51.381-21.285t51.296 21.371Q754-186.975 754-156.965t-21.371 51.296q-21.371 21.285-51.381 21.285Zm-436.226-646 100.79 209.58h281.203l114.739-209.58H245.022Zm-34.43-69.232h572.805q26.487 0 39.806 23.455 13.319 23.454.312 46.965L693.391-494.261q-10.811 19.391-29.229 31.159-18.417 11.768-39.923 11.768H328.761l-50.834 94.385h479.022v69.232H280.856q-44.676 0-64.889-32.344-20.213-32.344-.01-68.71l59.949-108.965-146.239-310.648H51.051v-69.232h122.782l36.759 78Zm135.22 278.812h281.203-281.203Z"/></svg>